Gait_lateral_29_analogdata.mot
version=1
nRows=21
nColumns=19
inDegrees=yes
endheader
time	1_ground_force_vx	1_ground_force_vy	1_ground_force_vz	1_ground_force_px	1_ground_force_py	1_ground_force_pz	1_ground_torque_x	1_ground_torque_y	1_ground_torque_z	2_ground_force_vx	2_ground_force_vy	2_ground_force_vz	2_ground_force_px	2_ground_force_py	2_ground_force_pz	2_ground_torque_x	2_ground_torque_y	2_ground_torque_z
0.660000	-44.513872	657.687134	62.250214	-0.087200	0.000000	-0.192015	0.067301	-0.994369	-0.094117	0.000000	0.000000	-0.000000	-0.200000	0.000000	0.302000	0.000000	0.000000	-0.000000
0.661000	-45.493814	656.287415	61.630929	-0.086951	0.000000	-0.191355	0.073650	-1.062468	-0.099775	0.000000	0.000000	-0.000000	-0.200000	0.000000	0.302000	0.000000	0.000000	-0.000000
0.662000	-45.939245	660.486511	63.134907	-0.087496	0.000000	-0.191556	0.076034	-1.093175	-0.104495	0.792828	0.000000	0.534267	-0.179221	0.000000	0.255328	0.006930	0.045033	0.004670
0.663000	-46.206503	659.086792	62.604092	-0.087181	0.000000	-0.192214	0.087397	-1.246619	-0.118411	0.000000	0.000000	-0.000000	-0.200000	0.000000	0.302000	0.000000	0.000000	-0.000000
0.664000	-46.562845	656.287415	63.311844	-0.086414	0.000000	-0.192280	0.063578	-0.896116	-0.086448	0.000000	0.000000	-0.000000	-0.200000	0.000000	0.302000	0.000000	0.000000	-0.000000
0.665000	-46.562846	654.537842	64.815819	-0.086963	0.000000	-0.191263	0.081321	-1.143140	-0.113200	0.000000	0.000000	-0.000000	-0.200000	0.000000	0.302000	0.000000	0.000000	-0.000000
0.666000	-45.850161	654.537842	65.612046	-0.086641	0.000000	-0.191065	0.073160	-1.044403	-0.104693	0.000000	0.000000	-0.000000	-0.200000	0.000000	0.302000	0.000000	0.000000	-0.000000
0.667000	-45.850161	654.537842	66.673676	-0.086679	0.000000	-0.191973	0.029877	-0.426510	-0.043446	1.238087	0.000000	-0.351158	-0.295443	0.000000	0.168267	0.006709	0.064104	-0.001903
0.668000	-45.315646	649.988831	67.204491	-0.087548	0.000000	-0.191023	0.064496	-0.925104	-0.095650	4.087748	20.615019	2.216575	-0.263907	0.000000	0.207324	0.006939	0.034994	0.003763
0.669000	-46.117419	649.638916	67.469895	-0.086984	0.000000	-0.189551	0.064414	-0.907381	-0.094238	4.533007	0.000000	6.909328	-0.257581	0.000000	0.208906	0.031657	0.134150	0.048252
0.670000	-45.048389	649.289001	68.973878	-0.086360	0.000000	-0.190698	0.061253	-0.882848	-0.093785	4.711111	0.000000	8.503093	-0.258569	0.000000	0.172633	0.165043	0.636022	0.297887
0.671000	-44.781131	651.738464	68.266122	-0.087184	0.000000	-0.191637	0.083930	-1.221512	-0.127947	2.306709	0.000000	8.768721	-0.278836	0.000000	0.161508	0.018685	0.138519	0.071028
0.672000	-44.513873	648.239197	69.504693	-0.086902	0.000000	-0.190341	0.086358	-1.257597	-0.134840	3.019124	0.000000	10.273943	-0.303204	0.000000	0.191905	0.014607	0.079335	0.049707
0.673000	-45.404731	648.589111	70.566323	-0.086265	0.000000	-0.190421	0.072517	-1.035878	-0.112703	3.019124	26.237839	11.867709	-0.274168	0.000000	0.224284	0.012099	0.105144	0.047558
0.674000	-44.781131	646.839539	71.362542	-0.086631	0.000000	-0.190551	0.072387	-1.045591	-0.115355	3.820591	29.400677	12.133337	-0.281867	0.000000	0.218824	0.022013	0.169400	0.069910
0.675000	-45.493816	644.739990	71.097138	-0.086452	0.000000	-0.190134	0.065525	-0.928621	-0.102401	3.909643	32.914940	13.638559	-0.277519	0.000000	0.224820	0.019577	0.164819	0.068294
0.676000	-45.582905	646.489624	73.220399	-0.086885	0.000000	-0.190548	0.081642	-1.157899	-0.131142	4.533006	37.834908	15.852122	-0.273176	0.000000	0.241897	0.008442	0.070465	0.029523
0.677000	-44.424789	644.739990	72.335709	-0.086050	0.000000	-0.190527	0.087329	-1.267408	-0.142195	4.978265	41.349171	16.914632	-0.267765	0.000000	0.222901	0.029286	0.243251	0.099506
0.678000	-45.582905	640.190979	73.397340	-0.086479	0.000000	-0.190704	0.072754	-1.021792	-0.117148	6.046888	48.377697	18.508397	-0.271708	0.000000	0.234059	0.059381	0.475072	0.181754
0.679000	-44.513874	638.441406	74.370499	-0.085886	0.000000	-0.188902	0.068230	-0.978598	-0.113994	5.245420	51.540535	20.279248	-0.273998	0.000000	0.230869	0.003847	0.037800	0.014873
0.680000	-44.692047	644.739990	75.343659	-0.087779	0.000000	-0.191331	0.073587	-1.061583	-0.124056	6.492147	56.460503	22.935523	-0.269899	0.000000	0.232457	0.021068	0.183220	0.074428
